<svg xmlns="http://www.w3.org/2000/svg" width="86" height="86" viewBox="0 0 86 86" fill="none">
<g opacity="0.2">
<ellipse cx="1.7885" cy="1.78955" rx="1.7885" ry="1.78955" transform="matrix(0.902306 -0.431096 0.431107 0.902301 49.1172 25.9521)" fill="#007AFF"/>
<ellipse cx="1.7885" cy="1.78955" rx="1.7885" ry="1.78955" transform="matrix(0.902303 -0.431103 0.4311 0.902304 50.6211 17.4141)" fill="#007AFF"/>
<ellipse cx="1.7885" cy="1.78955" rx="1.7885" ry="1.78955" transform="matrix(0.902304 -0.431099 0.431104 0.902302 61.8193 19.8652)" fill="#007AFF"/>
<ellipse cx="1.7885" cy="1.78955" rx="1.7885" ry="1.78955" transform="matrix(0.902309 -0.43109 0.431113 0.902298 59.6084 27.96)" fill="#007AFF"/>
<ellipse cx="1.7885" cy="1.78955" rx="1.7885" ry="1.78955" transform="matrix(0.902306 -0.431096 0.431107 0.902301 67.8633 29.4482)" fill="#007AFF"/>
<ellipse cx="1.7885" cy="1.78955" rx="1.7885" ry="1.78955" transform="matrix(0.90231 -0.431088 0.431115 0.902297 65.6211 40.5527)" fill="#007AFF"/>
<ellipse cx="1.7885" cy="1.78955" rx="1.7885" ry="1.78955" transform="matrix(0.902309 -0.431089 0.431114 0.902297 55.9541 46.6514)" fill="#007AFF"/>
<ellipse cx="1.7885" cy="1.78955" rx="1.7885" ry="1.78955" transform="matrix(0.902306 -0.431096 0.431107 0.902301 44.8584 44.3535)" fill="#007AFF"/>
<ellipse cx="1.7885" cy="1.78955" rx="1.7885" ry="1.78955" transform="matrix(0.902309 -0.431089 0.431114 0.902297 38.8496 34.8691)" fill="#007AFF"/>
<ellipse cx="1.7885" cy="1.78955" rx="1.7885" ry="1.78955" transform="matrix(0.902303 -0.431103 0.4311 0.902304 41.0928 23.8438)" fill="#007AFF"/>
<ellipse cx="1.31367" cy="1.31445" rx="1.31367" ry="1.31445" transform="matrix(0.902306 -0.431096 0.431107 0.902301 45.3145 26.2979)" fill="#007AFF"/>
<ellipse cx="1.12375" cy="1.12441" rx="1.12375" ry="1.12441" transform="matrix(0.902303 -0.431103 0.4311 0.902304 43.2148 19.9111)" fill="#007AFF"/>
<ellipse cx="1.12375" cy="1.12441" rx="1.12375" ry="1.12441" transform="matrix(0.902306 -0.431096 0.431107 0.902301 41.7393 43.5273)" fill="#007AFF"/>
<ellipse cx="1.12375" cy="1.12441" rx="1.12375" ry="1.12441" transform="matrix(0.902304 -0.431101 0.431102 0.902303 55.1309 15.8838)" fill="#007AFF"/>
<ellipse cx="1.12375" cy="1.12441" rx="1.12375" ry="1.12441" transform="matrix(0.902306 -0.431096 0.431107 0.902301 37.4727 31.5254)" fill="#007AFF"/>
<ellipse cx="1.12375" cy="1.12441" rx="1.12375" ry="1.12441" transform="matrix(0.902307 -0.431093 0.43111 0.902299 53.373 49.1357)" fill="#007AFF"/>
<ellipse cx="1.12375" cy="1.12441" rx="1.12375" ry="1.12441" transform="matrix(0.902303 -0.431103 0.4311 0.902304 66.6953 21.3252)" fill="#007AFF"/>
<ellipse cx="1.12375" cy="1.12441" rx="1.12375" ry="1.12441" transform="matrix(0.902306 -0.431096 0.431107 0.902301 65.0664 45.0146)" fill="#007AFF"/>
<ellipse cx="1.12375" cy="1.12441" rx="1.12375" ry="1.12441" transform="matrix(0.902311 -0.431086 0.431117 0.902296 71.0029 33.4072)" fill="#007AFF"/>
<ellipse cx="1.31367" cy="1.31445" rx="1.31367" ry="1.31445" transform="matrix(0.902304 -0.431101 0.431102 0.902303 51.9463 22.1484)" fill="#007AFF"/>
<ellipse cx="1.31367" cy="1.31445" rx="1.31367" ry="1.31445" transform="matrix(0.902303 -0.431103 0.4311 0.902304 60.0986 23.7373)" fill="#007AFF"/>
<ellipse cx="1.31367" cy="1.31445" rx="1.31367" ry="1.31445" transform="matrix(0.902306 -0.431096 0.431107 0.902301 64.2578 30.2334)" fill="#007AFF"/>
<ellipse cx="1.31367" cy="1.31445" rx="1.31367" ry="1.31445" transform="matrix(0.902306 -0.431096 0.431107 0.902301 62.8047 38.2891)" fill="#007AFF"/>
<ellipse cx="1.31367" cy="1.31445" rx="1.31367" ry="1.31445" transform="matrix(0.902306 -0.431096 0.431107 0.902301 56.0449 42.6309)" fill="#007AFF"/>
<ellipse cx="1.31367" cy="1.31445" rx="1.31367" ry="1.31445" transform="matrix(0.902306 -0.431096 0.431107 0.902301 43.6074 34.3174)" fill="#007AFF"/>
<ellipse cx="1.31367" cy="1.31445" rx="1.31367" ry="1.31445" transform="matrix(0.902306 -0.431096 0.431107 0.902301 47.9404 41.2344)" fill="#007AFF"/>
<ellipse cx="1.7885" cy="1.78955" rx="1.7885" ry="1.78955" transform="matrix(0.902307 -0.431093 0.43111 0.902299 57.5195 38.3018)" fill="#007AFF"/>
<ellipse cx="2.26332" cy="2.26466" rx="2.26332" ry="2.26466" transform="matrix(0.902303 -0.431103 0.4311 0.902304 55.7266 19.8027)" fill="#007AFF"/>
<ellipse cx="2.26332" cy="2.26466" rx="2.26332" ry="2.26466" transform="matrix(0.902306 -0.431096 0.431107 0.902301 63.2959 25.1533)" fill="#007AFF"/>
<ellipse cx="2.26332" cy="2.26466" rx="2.26332" ry="2.26466" transform="matrix(0.902306 -0.431096 0.431107 0.902301 64.876 34.8506)" fill="#007AFF"/>
<ellipse cx="2.26332" cy="2.26466" rx="2.26332" ry="2.26466" transform="matrix(0.902306 -0.431096 0.431107 0.902301 59.0518 42.6465)" fill="#007AFF"/>
<ellipse cx="2.26332" cy="2.26466" rx="2.26332" ry="2.26466" transform="matrix(0.90231 -0.431088 0.431115 0.902297 49.6855 44.0234)" fill="#007AFF"/>
<ellipse cx="2.26332" cy="2.26466" rx="2.26332" ry="2.26466" transform="matrix(0.902306 -0.431096 0.431107 0.902301 41.9785 38.3682)" fill="#007AFF"/>
<ellipse cx="2.26332" cy="2.26466" rx="2.26332" ry="2.26466" transform="matrix(0.90231 -0.431088 0.431115 0.902297 40.5537 29.0488)" fill="#007AFF"/>
<ellipse cx="2.26332" cy="2.26466" rx="2.26332" ry="2.26466" transform="matrix(0.902303 -0.431103 0.4311 0.902304 46.2148 20.9727)" fill="#007AFF"/>
<ellipse cx="1.7885" cy="1.78955" rx="1.7885" ry="1.78955" transform="matrix(0.902306 -0.431096 0.431107 0.902301 46.9033 36.0264)" fill="#007AFF"/>
<ellipse cx="1.7885" cy="1.78955" rx="1.7885" ry="1.78955" transform="matrix(0.902308 -0.431092 0.431112 0.902299 54.6689 24.8125)" fill="#007AFF"/>
<ellipse cx="1.7885" cy="1.78955" rx="1.7885" ry="1.78955" transform="matrix(0.902309 -0.431091 0.431113 0.902298 45.7939 30.5908)" fill="#007AFF"/>
<ellipse cx="1.7885" cy="1.78955" rx="1.7885" ry="1.78955" transform="matrix(0.902306 -0.431096 0.431107 0.902301 52.041 39.5254)" fill="#007AFF"/>
<ellipse cx="1.7885" cy="1.78955" rx="1.7885" ry="1.78955" transform="matrix(0.902309 -0.431091 0.431113 0.902298 60.8691 33.6338)" fill="#007AFF"/>
</g>
<ellipse cx="54.8231" cy="26.2396" rx="1.535" ry="1.53644" fill="#007AFF"/>
<ellipse cx="59.1287" cy="20.2025" rx="1.535" ry="1.53644" fill="#007AFF"/>
<ellipse cx="66.8661" cy="26.2396" rx="1.535" ry="1.53644" fill="#007AFF"/>
<ellipse cx="62.1815" cy="31.6566" rx="1.535" ry="1.53644" fill="#007AFF"/>
<ellipse cx="67.9871" cy="35.8538" rx="1.535" ry="1.53644" fill="#007AFF"/>
<ellipse cx="62.1815" cy="43.5999" rx="1.535" ry="1.53644" fill="#007AFF"/>
<ellipse cx="52.4823" cy="44.7239" rx="1.535" ry="1.53644" fill="#007AFF"/>
<ellipse cx="44.7596" cy="38.8636" rx="1.535" ry="1.53644" fill="#007AFF"/>
<ellipse cx="43.62" cy="29.3284" rx="1.535" ry="1.53644" fill="#007AFF"/>
<ellipse cx="49.41" cy="21.6448" rx="1.535" ry="1.53644" fill="#007AFF"/>
<ellipse cx="51.3579" cy="24.7018" rx="1.12355" ry="1.12461" fill="#007AFF"/>
<ellipse cx="51.9292" cy="18.8275" rx="0.965306" ry="0.966215" fill="#007AFF"/>
<ellipse cx="42.0854" cy="36.5033" rx="0.965306" ry="0.966215" fill="#007AFF"/>
<ellipse cx="62.5942" cy="20.1098" rx="0.965306" ry="0.966215" fill="#007AFF"/>
<ellipse cx="43.2251" cy="25.6693" rx="0.965306" ry="0.966215" fill="#007AFF"/>
<ellipse cx="49.0014" cy="45.1352" rx="0.965306" ry="0.966215" fill="#007AFF"/>
<ellipse cx="69.5249" cy="28.5824" rx="0.965306" ry="0.966215" fill="#007AFF"/>
<ellipse cx="59.5405" cy="46.2611" rx="0.965306" ry="0.966215" fill="#007AFF"/>
<ellipse cx="68.4009" cy="39.4965" rx="0.965306" ry="0.966215" fill="#007AFF"/>
<ellipse cx="58.0044" cy="23.943" rx="1.12355" ry="1.12461" fill="#007AFF"/>
<ellipse cx="63.7173" cy="28.1725" rx="1.12355" ry="1.12461" fill="#007AFF"/>
<ellipse cx="64.5405" cy="34.7301" rx="1.12355" ry="1.12461" fill="#007AFF"/>
<ellipse cx="60.4253" cy="40.399" rx="1.12355" ry="1.12461" fill="#007AFF"/>
<ellipse cx="53.6226" cy="41.2555" rx="1.12355" ry="1.12461" fill="#007AFF"/>
<ellipse cx="47.0855" cy="30.2613" rx="1.12355" ry="1.12461" fill="#007AFF"/>
<ellipse cx="47.8775" cy="37.1988" rx="1.12355" ry="1.12461" fill="#007AFF"/>
<ellipse cx="56.7547" cy="38.8636" rx="1.535" ry="1.53644" fill="#007AFF"/>
<ellipse cx="62.5957" cy="24.3377" rx="1.93061" ry="1.93243" fill="#007AFF"/>
<ellipse cx="66.4706" cy="31.2606" rx="1.93061" ry="1.93243" fill="#007AFF"/>
<ellipse cx="64.1132" cy="39.3231" rx="1.93061" ry="1.93243" fill="#007AFF"/>
<ellipse cx="56.7548" cy="43.2039" rx="1.93061" ry="1.93243" fill="#007AFF"/>
<ellipse cx="49.0156" cy="40.7967" rx="1.93061" ry="1.93243" fill="#007AFF"/>
<ellipse cx="45.1552" cy="33.5877" rx="1.93061" ry="1.93243" fill="#007AFF"/>
<ellipse cx="47.4814" cy="25.8738" rx="1.93061" ry="1.93243" fill="#007AFF"/>
<ellipse cx="54.8242" cy="21.741" rx="1.93061" ry="1.93243" fill="#007AFF"/>
<ellipse cx="49.41" cy="33.1917" rx="1.535" ry="1.53644" fill="#007AFF"/>
<ellipse cx="59.5409" cy="27.4114" rx="1.535" ry="1.53644" fill="#007AFF"/>
<ellipse cx="50.5526" cy="28.5843" rx="1.535" ry="1.53644" fill="#007AFF"/>
<ellipse cx="52.0868" cy="37.8021" rx="1.535" ry="1.53644" fill="#007AFF"/>
<ellipse cx="61.076" cy="36.5023" rx="1.535" ry="1.53644" fill="#007AFF"/>
<path d="M36.5566 37.1221C37.6886 46.0988 45.3509 53.042 54.6348 53.042C57.6285 53.042 60.4534 52.3193 62.9453 51.04V63.085C62.9453 67.5031 59.3634 71.0847 54.9453 71.085H12V45.1221C12 40.7038 15.5817 37.1221 20 37.1221H36.5566ZM22.7764 62.8516C22.2355 62.8518 21.7969 63.2911 21.7969 63.832C21.7971 64.3728 22.2356 64.8113 22.7764 64.8115H52.168C52.7089 64.8115 53.1472 64.3729 53.1475 63.832C53.1475 63.291 52.709 62.8516 52.168 62.8516H22.7764ZM22.7764 56.9736C22.2356 56.9739 21.797 57.4123 21.7969 57.9531C21.7969 58.4941 22.2355 58.9324 22.7764 58.9326H52.168C52.709 58.9326 53.1475 58.4942 53.1475 57.9531C53.1474 57.4121 52.709 56.9736 52.168 56.9736H22.7764Z" fill="url(#paint0_linear_602_722)"/>
<defs>
<linearGradient id="paint0_linear_602_722" x1="50.4444" y1="39.8221" x2="27.8302" y2="78.6776" gradientUnits="userSpaceOnUse">
<stop stop-color="white"/>
<stop offset="1" stop-color="#007AFF"/>
</linearGradient>
</defs>
</svg>